<mxfile host="Electron" agent="Mozilla/5.0 (Windows NT 10.0; Win64; x64) AppleWebKit/537.36 (KHTML, like Gecko) draw.io/27.0.9 Chrome/134.0.6998.205 Electron/35.4.0 Safari/537.36" version="27.0.9">
  <diagram name="Página-1" id="tM3ftosBq5wTvWjN4mbQ">
    <mxGraphModel dx="1426" dy="875" grid="1" gridSize="10" guides="1" tooltips="1" connect="1" arrows="1" fold="1" page="1" pageScale="1" pageWidth="1169" pageHeight="1654" math="0" shadow="0">
      <root>
        <mxCell id="0" />
        <mxCell id="1" parent="0" />
        <mxCell id="xj_4vrmqcOP7FG4T2v6e-6" value="" style="edgeStyle=orthogonalEdgeStyle;rounded=0;orthogonalLoop=1;jettySize=auto;html=1;" parent="1" source="7ZSRkaOjpOQk4Y71W81P-1" target="xj_4vrmqcOP7FG4T2v6e-5" edge="1">
          <mxGeometry relative="1" as="geometry" />
        </mxCell>
        <mxCell id="7ZSRkaOjpOQk4Y71W81P-1" value="&lt;font style=&quot;font-size: 12px;&quot;&gt;Mascote&lt;/font&gt;" style="ellipse;whiteSpace=wrap;html=1;" parent="1" vertex="1">
          <mxGeometry x="370" y="100" width="80" height="80" as="geometry" />
        </mxCell>
        <mxCell id="xj_4vrmqcOP7FG4T2v6e-10" value="" style="edgeStyle=orthogonalEdgeStyle;rounded=0;orthogonalLoop=1;jettySize=auto;html=1;" parent="1" source="xj_4vrmqcOP7FG4T2v6e-3" target="xj_4vrmqcOP7FG4T2v6e-9" edge="1">
          <mxGeometry relative="1" as="geometry" />
        </mxCell>
        <mxCell id="xj_4vrmqcOP7FG4T2v6e-3" value="Desempenho Ótimo igual a 1?" style="rhombus;whiteSpace=wrap;html=1;" parent="1" vertex="1">
          <mxGeometry x="625" y="270" width="80" height="80" as="geometry" />
        </mxCell>
        <mxCell id="xj_4vrmqcOP7FG4T2v6e-7" value="" style="edgeStyle=orthogonalEdgeStyle;rounded=0;orthogonalLoop=1;jettySize=auto;html=1;exitX=0.5;exitY=1;exitDx=0;exitDy=0;" parent="1" source="xj_4vrmqcOP7FG4T2v6e-5" target="xj_4vrmqcOP7FG4T2v6e-3" edge="1">
          <mxGeometry relative="1" as="geometry">
            <mxPoint x="665" y="230" as="sourcePoint" />
          </mxGeometry>
        </mxCell>
        <mxCell id="xj_4vrmqcOP7FG4T2v6e-5" value="Algoritmo de Desempenho atribui valor 1 em apenas uma das 4 variáveis (com base em porcentagem do número de progressos feitos sobre o total previsto para a frequência)&lt;span style=&quot;background-color: transparent; color: light-dark(rgb(0, 0, 0), rgb(255, 255, 255));&quot;&gt;&amp;nbsp;que sinalizam o desempenho do usuário de acordo com o progresso nos hábitos. As variáveis são:&lt;/span&gt;&lt;div&gt;&lt;div&gt;&lt;br&gt;&lt;div&gt;1. Desempenho Ótimo&lt;/div&gt;&lt;div&gt;&lt;span style=&quot;background-color: transparent; color: light-dark(rgb(0, 0, 0), rgb(255, 255, 255));&quot;&gt;2. Desempenho Bom&lt;/span&gt;&lt;/div&gt;&lt;div&gt;3. Desempenho Fraco&lt;/div&gt;&lt;div&gt;4. Desempenho Ruim&lt;/div&gt;&lt;/div&gt;&lt;/div&gt;" style="rounded=0;whiteSpace=wrap;html=1;" parent="1" vertex="1">
          <mxGeometry x="550" y="30" width="230" height="220" as="geometry" />
        </mxCell>
        <mxCell id="xj_4vrmqcOP7FG4T2v6e-31" value="" style="edgeStyle=orthogonalEdgeStyle;rounded=0;orthogonalLoop=1;jettySize=auto;html=1;" parent="1" source="xj_4vrmqcOP7FG4T2v6e-8" target="xj_4vrmqcOP7FG4T2v6e-14" edge="1">
          <mxGeometry relative="1" as="geometry" />
        </mxCell>
        <mxCell id="xj_4vrmqcOP7FG4T2v6e-8" value="Desempenho Bom igual a 1?" style="rhombus;whiteSpace=wrap;html=1;" parent="1" vertex="1">
          <mxGeometry x="510" y="420" width="80" height="80" as="geometry" />
        </mxCell>
        <mxCell id="xj_4vrmqcOP7FG4T2v6e-12" value="" style="edgeStyle=orthogonalEdgeStyle;rounded=0;orthogonalLoop=1;jettySize=auto;html=1;" parent="1" source="xj_4vrmqcOP7FG4T2v6e-9" target="xj_4vrmqcOP7FG4T2v6e-11" edge="1">
          <mxGeometry relative="1" as="geometry" />
        </mxCell>
        <mxCell id="xj_4vrmqcOP7FG4T2v6e-9" value="ASCII do Mascote muito feliz" style="shape=document;whiteSpace=wrap;html=1;boundedLbl=1;" parent="1" vertex="1">
          <mxGeometry x="760" y="280" width="120" height="60" as="geometry" />
        </mxCell>
        <mxCell id="xj_4vrmqcOP7FG4T2v6e-11" value="&quot;Você é incrível!!!&quot;" style="shape=document;whiteSpace=wrap;html=1;boundedLbl=1;" parent="1" vertex="1">
          <mxGeometry x="760" y="360" width="120" height="60" as="geometry" />
        </mxCell>
        <mxCell id="xj_4vrmqcOP7FG4T2v6e-13" value="" style="edgeStyle=orthogonalEdgeStyle;rounded=0;orthogonalLoop=1;jettySize=auto;html=1;" parent="1" source="xj_4vrmqcOP7FG4T2v6e-14" target="xj_4vrmqcOP7FG4T2v6e-15" edge="1">
          <mxGeometry relative="1" as="geometry" />
        </mxCell>
        <mxCell id="xj_4vrmqcOP7FG4T2v6e-14" value="ASCII do Mascote muito feliz" style="shape=document;whiteSpace=wrap;html=1;boundedLbl=1;" parent="1" vertex="1">
          <mxGeometry x="620" y="430" width="120" height="60" as="geometry" />
        </mxCell>
        <mxCell id="xj_4vrmqcOP7FG4T2v6e-15" value="&quot;É isso aí, tá arrasando!!&quot;" style="shape=document;whiteSpace=wrap;html=1;boundedLbl=1;" parent="1" vertex="1">
          <mxGeometry x="620" y="510" width="120" height="60" as="geometry" />
        </mxCell>
        <mxCell id="xj_4vrmqcOP7FG4T2v6e-29" value="" style="edgeStyle=orthogonalEdgeStyle;rounded=0;orthogonalLoop=1;jettySize=auto;html=1;" parent="1" source="xj_4vrmqcOP7FG4T2v6e-16" target="xj_4vrmqcOP7FG4T2v6e-18" edge="1">
          <mxGeometry relative="1" as="geometry" />
        </mxCell>
        <mxCell id="xj_4vrmqcOP7FG4T2v6e-30" value="" style="edgeStyle=orthogonalEdgeStyle;rounded=0;orthogonalLoop=1;jettySize=auto;html=1;" parent="1" source="xj_4vrmqcOP7FG4T2v6e-16" target="xj_4vrmqcOP7FG4T2v6e-22" edge="1">
          <mxGeometry relative="1" as="geometry" />
        </mxCell>
        <mxCell id="xj_4vrmqcOP7FG4T2v6e-16" value="Desempenho Fraco igual a 1?" style="rhombus;whiteSpace=wrap;html=1;" parent="1" vertex="1">
          <mxGeometry x="395" y="590" width="80" height="80" as="geometry" />
        </mxCell>
        <mxCell id="xj_4vrmqcOP7FG4T2v6e-17" value="" style="edgeStyle=orthogonalEdgeStyle;rounded=0;orthogonalLoop=1;jettySize=auto;html=1;" parent="1" source="xj_4vrmqcOP7FG4T2v6e-18" target="xj_4vrmqcOP7FG4T2v6e-19" edge="1">
          <mxGeometry relative="1" as="geometry" />
        </mxCell>
        <mxCell id="xj_4vrmqcOP7FG4T2v6e-18" value="ASCII do Mascote preocupado" style="shape=document;whiteSpace=wrap;html=1;boundedLbl=1;" parent="1" vertex="1">
          <mxGeometry x="505" y="600" width="120" height="60" as="geometry" />
        </mxCell>
        <mxCell id="1jb-JJ6qqDxK2rF3gwSE-2" value="" style="edgeStyle=orthogonalEdgeStyle;rounded=0;orthogonalLoop=1;jettySize=auto;html=1;" edge="1" parent="1" source="xj_4vrmqcOP7FG4T2v6e-19" target="1jb-JJ6qqDxK2rF3gwSE-1">
          <mxGeometry relative="1" as="geometry" />
        </mxCell>
        <mxCell id="xj_4vrmqcOP7FG4T2v6e-19" value="&quot;Bora melhorar!&quot;" style="shape=document;whiteSpace=wrap;html=1;boundedLbl=1;" parent="1" vertex="1">
          <mxGeometry x="505" y="680" width="120" height="60" as="geometry" />
        </mxCell>
        <mxCell id="xj_4vrmqcOP7FG4T2v6e-21" value="" style="edgeStyle=orthogonalEdgeStyle;rounded=0;orthogonalLoop=1;jettySize=auto;html=1;" parent="1" source="xj_4vrmqcOP7FG4T2v6e-22" target="xj_4vrmqcOP7FG4T2v6e-23" edge="1">
          <mxGeometry relative="1" as="geometry" />
        </mxCell>
        <mxCell id="xj_4vrmqcOP7FG4T2v6e-22" value="ASCII do Mascote muito preocupado" style="shape=document;whiteSpace=wrap;html=1;boundedLbl=1;" parent="1" vertex="1">
          <mxGeometry x="240" y="600" width="120" height="60" as="geometry" />
        </mxCell>
        <mxCell id="xj_4vrmqcOP7FG4T2v6e-23" value="&quot;Lembre de tudo que fez até aqui e o porquê de tudo, não é hora de desisitir&quot;" style="shape=document;whiteSpace=wrap;html=1;boundedLbl=1;" parent="1" vertex="1">
          <mxGeometry x="220" y="680" width="140" height="90" as="geometry" />
        </mxCell>
        <mxCell id="xj_4vrmqcOP7FG4T2v6e-24" value="" style="endArrow=classic;html=1;rounded=0;entryX=0.5;entryY=0;entryDx=0;entryDy=0;exitX=0;exitY=0.5;exitDx=0;exitDy=0;" parent="1" source="xj_4vrmqcOP7FG4T2v6e-3" target="xj_4vrmqcOP7FG4T2v6e-8" edge="1">
          <mxGeometry width="50" height="50" relative="1" as="geometry">
            <mxPoint x="460" y="470" as="sourcePoint" />
            <mxPoint x="510" y="420" as="targetPoint" />
            <Array as="points">
              <mxPoint x="550" y="310" />
            </Array>
          </mxGeometry>
        </mxCell>
        <mxCell id="xj_4vrmqcOP7FG4T2v6e-27" value="" style="endArrow=classic;html=1;rounded=0;exitX=0;exitY=0.5;exitDx=0;exitDy=0;entryX=0.5;entryY=0;entryDx=0;entryDy=0;" parent="1" source="xj_4vrmqcOP7FG4T2v6e-8" target="xj_4vrmqcOP7FG4T2v6e-16" edge="1">
          <mxGeometry width="50" height="50" relative="1" as="geometry">
            <mxPoint x="460" y="470" as="sourcePoint" />
            <mxPoint x="510" y="420" as="targetPoint" />
            <Array as="points">
              <mxPoint x="435" y="460" />
            </Array>
          </mxGeometry>
        </mxCell>
        <mxCell id="xj_4vrmqcOP7FG4T2v6e-32" value="V" style="text;html=1;align=center;verticalAlign=middle;resizable=0;points=[];autosize=1;strokeColor=none;fillColor=none;" parent="1" vertex="1">
          <mxGeometry x="705" y="288" width="30" height="30" as="geometry" />
        </mxCell>
        <mxCell id="xj_4vrmqcOP7FG4T2v6e-33" value="F" style="text;html=1;align=center;verticalAlign=middle;resizable=0;points=[];autosize=1;strokeColor=none;fillColor=none;" parent="1" vertex="1">
          <mxGeometry x="575" y="278" width="30" height="30" as="geometry" />
        </mxCell>
        <mxCell id="xj_4vrmqcOP7FG4T2v6e-34" value="F" style="text;html=1;align=center;verticalAlign=middle;resizable=0;points=[];autosize=1;strokeColor=none;fillColor=none;" parent="1" vertex="1">
          <mxGeometry x="465" y="438" width="30" height="30" as="geometry" />
        </mxCell>
        <mxCell id="xj_4vrmqcOP7FG4T2v6e-35" value="V" style="text;html=1;align=center;verticalAlign=middle;resizable=0;points=[];autosize=1;strokeColor=none;fillColor=none;" parent="1" vertex="1">
          <mxGeometry x="585" y="438" width="30" height="30" as="geometry" />
        </mxCell>
        <mxCell id="xj_4vrmqcOP7FG4T2v6e-36" value="F" style="text;html=1;align=center;verticalAlign=middle;resizable=0;points=[];autosize=1;strokeColor=none;fillColor=none;" parent="1" vertex="1">
          <mxGeometry x="365" y="608" width="30" height="30" as="geometry" />
        </mxCell>
        <mxCell id="xj_4vrmqcOP7FG4T2v6e-38" value="V" style="text;html=1;align=center;verticalAlign=middle;resizable=0;points=[];autosize=1;strokeColor=none;fillColor=none;" parent="1" vertex="1">
          <mxGeometry x="465" y="608" width="30" height="30" as="geometry" />
        </mxCell>
        <mxCell id="1jb-JJ6qqDxK2rF3gwSE-7" value="" style="edgeStyle=orthogonalEdgeStyle;rounded=0;orthogonalLoop=1;jettySize=auto;html=1;" edge="1" parent="1" source="1jb-JJ6qqDxK2rF3gwSE-1" target="1jb-JJ6qqDxK2rF3gwSE-6">
          <mxGeometry relative="1" as="geometry" />
        </mxCell>
        <mxCell id="1jb-JJ6qqDxK2rF3gwSE-1" value="&quot;Pressione Enter para voltar ao menu&lt;span style=&quot;color: rgba(0, 0, 0, 0); font-family: monospace; font-size: 0px; text-align: start; text-wrap-mode: nowrap;&quot;&gt;%3CmxGraphModel%3E%3Croot%3E%3CmxCell%20id%3D%220%22%2F%3E%3CmxCell%20id%3D%221%22%20parent%3D%220%22%2F%3E%3CmxCell%20id%3D%222%22%20value%3D%22%26quot%3BLembre%20de%20tudo%20que%20fez%20at%C3%A9%20aqui%20e%20o%20porqu%C3%AA%20de%20tudo%2C%20n%C3%A3o%20%C3%A9%20hora%20de%20desisitir%26quot%3B%22%20style%3D%22shape%3Ddocument%3BwhiteSpace%3Dwrap%3Bhtml%3D1%3BboundedLbl%3D1%3B%22%20vertex%3D%221%22%20parent%3D%221%22%3E%3CmxGeometry%20x%3D%22220%22%20y%3D%22680%22%20width%3D%22140%22%20height%3D%2290%22%20as%3D%22geometry%22%2F%3E%3C%2FmxCell%3E%3C%2Froot%3E%3C%2FmxGraphModel%3E&lt;/span&gt;&quot;" style="shape=document;whiteSpace=wrap;html=1;boundedLbl=1;" vertex="1" parent="1">
          <mxGeometry x="495" y="840" width="140" height="90" as="geometry" />
        </mxCell>
        <mxCell id="1jb-JJ6qqDxK2rF3gwSE-3" value="" style="endArrow=classic;html=1;rounded=0;entryX=0.5;entryY=0;entryDx=0;entryDy=0;exitX=0.5;exitY=0.889;exitDx=0;exitDy=0;exitPerimeter=0;" edge="1" parent="1" source="xj_4vrmqcOP7FG4T2v6e-23" target="1jb-JJ6qqDxK2rF3gwSE-1">
          <mxGeometry width="50" height="50" relative="1" as="geometry">
            <mxPoint x="480" y="750" as="sourcePoint" />
            <mxPoint x="530" y="700" as="targetPoint" />
            <Array as="points">
              <mxPoint x="290" y="810" />
              <mxPoint x="555" y="810" />
              <mxPoint x="565" y="810" />
            </Array>
          </mxGeometry>
        </mxCell>
        <mxCell id="1jb-JJ6qqDxK2rF3gwSE-4" value="" style="endArrow=classic;html=1;rounded=0;entryX=0.5;entryY=0;entryDx=0;entryDy=0;exitX=0.5;exitY=0.933;exitDx=0;exitDy=0;exitPerimeter=0;" edge="1" parent="1" source="xj_4vrmqcOP7FG4T2v6e-15" target="1jb-JJ6qqDxK2rF3gwSE-1">
          <mxGeometry width="50" height="50" relative="1" as="geometry">
            <mxPoint x="430" y="750" as="sourcePoint" />
            <mxPoint x="480" y="700" as="targetPoint" />
            <Array as="points">
              <mxPoint x="680" y="810" />
              <mxPoint x="555" y="810" />
              <mxPoint x="565" y="810" />
            </Array>
          </mxGeometry>
        </mxCell>
        <mxCell id="1jb-JJ6qqDxK2rF3gwSE-5" value="" style="endArrow=classic;html=1;rounded=0;entryX=0.5;entryY=0;entryDx=0;entryDy=0;exitX=0.5;exitY=0.917;exitDx=0;exitDy=0;exitPerimeter=0;" edge="1" parent="1" source="xj_4vrmqcOP7FG4T2v6e-11" target="1jb-JJ6qqDxK2rF3gwSE-1">
          <mxGeometry width="50" height="50" relative="1" as="geometry">
            <mxPoint x="430" y="750" as="sourcePoint" />
            <mxPoint x="480" y="700" as="targetPoint" />
            <Array as="points">
              <mxPoint x="820" y="810" />
              <mxPoint x="555" y="810" />
              <mxPoint x="565" y="810" />
            </Array>
          </mxGeometry>
        </mxCell>
        <mxCell id="1jb-JJ6qqDxK2rF3gwSE-10" value="" style="edgeStyle=orthogonalEdgeStyle;rounded=0;orthogonalLoop=1;jettySize=auto;html=1;" edge="1" parent="1" source="1jb-JJ6qqDxK2rF3gwSE-6" target="1jb-JJ6qqDxK2rF3gwSE-9">
          <mxGeometry relative="1" as="geometry" />
        </mxCell>
        <mxCell id="1jb-JJ6qqDxK2rF3gwSE-6" value="" style="verticalLabelPosition=bottom;verticalAlign=top;html=1;shape=card;whiteSpace=wrap;size=20;arcSize=12;" vertex="1" parent="1">
          <mxGeometry x="515" y="970" width="100" height="60" as="geometry" />
        </mxCell>
        <mxCell id="1jb-JJ6qqDxK2rF3gwSE-8" value="Entrada" style="text;html=1;align=center;verticalAlign=middle;resizable=0;points=[];autosize=1;strokeColor=none;fillColor=none;" vertex="1" parent="1">
          <mxGeometry x="530" y="985" width="70" height="30" as="geometry" />
        </mxCell>
        <mxCell id="1jb-JJ6qqDxK2rF3gwSE-12" value="" style="edgeStyle=orthogonalEdgeStyle;rounded=0;orthogonalLoop=1;jettySize=auto;html=1;" edge="1" parent="1" source="1jb-JJ6qqDxK2rF3gwSE-9" target="1jb-JJ6qqDxK2rF3gwSE-11">
          <mxGeometry relative="1" as="geometry" />
        </mxCell>
        <mxCell id="1jb-JJ6qqDxK2rF3gwSE-14" style="edgeStyle=orthogonalEdgeStyle;rounded=0;orthogonalLoop=1;jettySize=auto;html=1;exitX=0;exitY=0.5;exitDx=0;exitDy=0;entryX=0;entryY=0.5;entryDx=0;entryDy=0;" edge="1" parent="1" source="1jb-JJ6qqDxK2rF3gwSE-9" target="1jb-JJ6qqDxK2rF3gwSE-1">
          <mxGeometry relative="1" as="geometry" />
        </mxCell>
        <mxCell id="1jb-JJ6qqDxK2rF3gwSE-9" value="Entrada é igual a &quot;Enter&quot;?" style="rhombus;whiteSpace=wrap;html=1;" vertex="1" parent="1">
          <mxGeometry x="525" y="1060" width="80" height="80" as="geometry" />
        </mxCell>
        <mxCell id="1jb-JJ6qqDxK2rF3gwSE-11" value="Menu Principal" style="ellipse;whiteSpace=wrap;html=1;" vertex="1" parent="1">
          <mxGeometry x="635" y="1060" width="80" height="80" as="geometry" />
        </mxCell>
        <mxCell id="1jb-JJ6qqDxK2rF3gwSE-15" value="F" style="text;html=1;align=center;verticalAlign=middle;resizable=0;points=[];autosize=1;strokeColor=none;fillColor=none;" vertex="1" parent="1">
          <mxGeometry x="505" y="1068" width="30" height="30" as="geometry" />
        </mxCell>
        <mxCell id="1jb-JJ6qqDxK2rF3gwSE-16" value="V" style="text;html=1;align=center;verticalAlign=middle;resizable=0;points=[];autosize=1;strokeColor=none;fillColor=none;" vertex="1" parent="1">
          <mxGeometry x="605" y="1068" width="30" height="30" as="geometry" />
        </mxCell>
      </root>
    </mxGraphModel>
  </diagram>
</mxfile>
